<svg width="20" height="20" viewBox="0 0 20 20" fill="none" xmlns="http://www.w3.org/2000/svg">
<circle cx="10" cy="10" r="8" fill="white"/>
<path d="M3.2 4.14606C0.177 7.77306 1.087 12.1061 1.92 13.8181L3.896 12.6651C3.319 11.4971 3.3 10.1581 3.355 9.50306C3.78 4.39606 8.359 3.31506 9.988 3.31506C11.284 3.31506 12.478 3.76306 12.914 3.98706C11.018 5.06206 7.158 7.27006 6.889 7.50706C6.552 7.80106 6.3 8.27406 6.679 8.96906C7.015 9.58306 7.713 9.50306 8.132 9.35906L19.65 2.78706C19.925 2.65006 20.203 1.93206 19.786 1.32906C19.386 0.749063 18.546 0.829063 18.153 1.08006C16.742 1.98606 15.884 2.15606 15.189 2.21906C14.633 2.26906 13.235 1.67706 12.569 1.45706C10.705 0.843063 6.064 0.709063 3.199 4.14706M16.797 15.8631C19.82 12.2351 18.91 7.90306 18.077 6.19006L16.101 7.34406C16.677 8.51206 16.697 9.85106 16.642 10.5051C16.217 15.6131 11.638 16.6941 10.009 16.6941C8.713 16.6941 7.519 16.2451 7.082 16.0211C8.979 14.9471 12.838 12.7391 13.108 12.5031C13.445 12.2081 13.697 11.7361 13.318 11.0401C12.982 10.4251 12.284 10.5051 11.865 10.6491L0.347 17.2141C0.0710002 17.3511 -0.201 18.0791 0.209 18.6721C0.611 19.2521 1.449 19.1731 1.843 18.9201C3.254 18.0151 4.113 17.8531 4.808 17.7901C5.364 17.7401 6.762 18.3321 7.428 18.5511C9.292 19.1661 13.933 19.2991 16.798 15.8611" fill="#19539F"/>
</svg>
