<svg width="24" height="24" viewBox="0 0 24 24" fill="none" xmlns="http://www.w3.org/2000/svg">
<path d="M5.2 6.14606C2.177 9.77306 3.087 14.1061 3.92 15.8181L5.896 14.6651C5.319 13.4971 5.3 12.1581 5.355 11.5031C5.78 6.39606 10.359 5.31506 11.988 5.31506C13.284 5.31506 14.478 5.76306 14.914 5.98706C13.018 7.06206 9.158 9.27006 8.889 9.50706C8.552 9.80106 8.3 10.2741 8.679 10.9691C9.015 11.5831 9.713 11.5031 10.132 11.3591L21.65 4.78706C21.925 4.65006 22.203 3.93206 21.786 3.32906C21.386 2.74906 20.546 2.82906 20.153 3.08006C18.742 3.98606 17.884 4.15606 17.189 4.21906C16.633 4.26906 15.235 3.67706 14.569 3.45706C12.705 2.84306 8.064 2.70906 5.199 6.14706M18.797 17.8631C21.82 14.2351 20.91 9.90306 20.077 8.19006L18.101 9.34406C18.677 10.5121 18.697 11.8511 18.642 12.5051C18.217 17.6131 13.638 18.6941 12.009 18.6941C10.713 18.6941 9.519 18.2451 9.082 18.0211C10.979 16.9471 14.838 14.7391 15.108 14.5031C15.445 14.2081 15.697 13.7361 15.318 13.0401C14.982 12.4251 14.284 12.5051 13.865 12.6491L2.347 19.2141C2.071 19.3511 1.799 20.0791 2.209 20.6721C2.611 21.2521 3.449 21.1731 3.843 20.9201C5.254 20.0151 6.113 19.8531 6.808 19.7901C7.364 19.7401 8.762 20.3321 9.428 20.5511C11.292 21.1661 15.933 21.2991 18.798 17.8611" fill="white"/>
</svg>
