<svg width="24" height="24" viewBox="0 0 24 24" fill="none" xmlns="http://www.w3.org/2000/svg">
<g clip-path="url(#clip0_24_8)">
<path d="M12.125 0V4.8C13.3541 4.83404 14.5236 5.33751 15.393 6.20697C16.2625 7.07644 16.766 8.24587 16.8 9.475H21.6C21.5676 6.97214 20.559 4.58091 18.789 2.81097C17.0191 1.04104 14.6279 0.0323826 12.125 0Z" fill="#F09000"/>
<path fill-rule="evenodd" clip-rule="evenodd" d="M5.21097 2.81097C6.9809 1.04104 9.37214 0.0323826 11.875 0V4.8C10.6459 4.83404 9.47643 5.33751 8.60697 6.20697C7.7375 7.07644 7.23403 8.24587 7.19999 9.475H2.39999C2.43238 6.97214 3.44103 4.58091 5.21097 2.81097Z" fill="#19539F"/>
<path d="M12 19.199C14.5244 19.1992 16.9473 18.2051 18.7441 16.4319C20.5408 14.6587 21.5669 12.2492 21.6 9.725H16.8C16.7656 10.9757 16.245 12.1637 15.3487 13.0366C14.4525 13.9096 13.2511 14.3986 12 14.4V19.199Z" fill="#19539F"/>
<path d="M2.39999 9.725V24H12V19.2H7.19999V9.724L2.39999 9.725Z" fill="#19539F"/>
</g>
<defs>
<clipPath id="clip0_24_8">
<rect width="24" height="24" fill="white"/>
</clipPath>
</defs>
</svg>
